# 3ds Max Wavefront OBJ Exporter v0.97b - (c)2007 guruware
# File Created: 30.04.2011 18:24:14

#
# object palm_plant
#

v  4.6820 46.2927 4.8479
v  6.7218 60.3156 6.9599
v  11.8130 61.5776 -4.3571
v  9.6901 46.9835 -6.5552
v  -6.8884 46.9835 9.4562
v  -4.7655 61.5776 11.6543
v  11.6601 79.4946 12.0731
v  16.9525 81.5378 0.9643
v  0.3739 81.5378 16.9758
v  18.8397 97.1455 19.5070
v  24.4244 99.9076 8.7010
v  7.8459 99.9076 24.7124
v  28.0418 112.7308 29.0350
v  34.0014 116.1277 18.6171
v  17.4228 116.1277 34.6285
v  38.9151 125.9130 40.2935
v  45.1758 129.6890 30.1873
v  28.5972 129.6890 46.1987
v  1.5607 15.4310 1.6160
v  3.1213 30.8618 3.2319
v  8.1291 31.5495 -8.1715
v  6.5685 16.1187 -9.7875
v  -10.0101 16.1187 6.2240
v  -8.4494 31.5495 7.8399
v  0.0000 0.0001 -0.0000
v  5.0078 0.6878 -11.4034
v  -11.5708 0.6878 4.6080
v  0.0000 46.6027 -4.0772
v  0.0000 60.7708 -6.2055
v  -11.5240 61.7671 -1.5373
v  -11.5240 47.0219 0.6777
v  11.5241 47.0219 0.6777
v  11.5241 61.7671 -1.5373
v  0.0000 80.3254 -12.2040
v  -11.5240 82.1182 -7.7800
v  11.5240 82.1181 -7.7800
v  0.0000 98.5393 -21.5109
v  -11.5240 101.0739 -17.4660
v  11.5240 101.0739 -17.4660
v  0.0000 114.8577 -33.8427
v  -11.5240 118.0569 -30.3001
v  11.5241 118.0569 -30.3001
v  0.0000 128.9147 -48.7140
v  -11.5241 132.5172 -45.5823
v  11.5240 132.5172 -45.5823
v  0.0000 15.5343 -1.3591
v  0.0000 31.0685 -2.7181
v  -11.5240 31.4845 2.0371
v  -11.5240 15.9504 3.3962
v  11.5241 15.9503 3.3962
v  11.5241 31.4845 2.0371
v  -11.5240 0.4162 4.7552
v  11.5241 0.4162 4.7552
v  4.1723 87.7821 -1.9061
v  6.3503 103.7222 -2.9011
v  -3.1804 104.8432 -11.2170
v  -5.4471 88.2537 -10.1815
v  4.0600 88.2537 10.8152
v  6.3266 104.8432 9.7796
v  12.4886 125.7227 -5.7054
v  3.2079 127.7397 -14.1355
v  12.7150 127.7397 6.8611
v  22.0125 146.2147 -10.0565
v  13.1197 149.0664 -18.6638
v  22.6268 149.0664 2.3329
v  34.6319 164.5741 -15.8217
v  26.2532 168.1736 -24.6638
v  35.7602 168.1736 -3.6672
v  49.8499 180.3894 -22.7740
v  41.8917 184.4425 -31.8083
v  51.3988 184.4425 -10.8117
v  -8.2289 31.7731 -8.9106
v  1.3908 31.0388 -0.6354
v  2.7815 62.7784 -1.2707
v  -6.8381 63.5127 -9.5460
v  1.2782 31.7730 12.0861
v  2.6689 63.5127 11.4507
v  -9.6197 1.0730 -8.2752
v  0.0000 0.3387 -0.0000
v  -0.1126 1.0730 12.7214
v  -4.4904 43.1018 6.9066
v  -7.8408 42.4522 0.5706
v  -10.0168 50.0614 0.8101
v  -6.7550 51.0209 7.1559
v  -6.0981 42.9446 -6.6948
v  -8.3627 50.8637 -6.4455
v  -14.6788 60.3437 1.4403
v  -11.6069 61.7221 7.8118
v  -13.2146 61.5648 -5.7896
v  -21.0370 69.6540 2.3916
v  -18.2241 71.4116 8.8018
v  -19.8318 71.2544 -4.7995
v  -28.8977 77.7088 3.6349
v  -26.4049 79.7944 10.0957
v  -28.0126 79.6372 -3.5056
v  -37.9713 84.3424 5.1218
v  -35.7304 86.6194 11.6238
v  -37.3381 86.4622 -1.9776
v  0.6061 15.7941 6.5302
v  -2.7277 15.0166 0.1937
v  -5.5003 30.3744 0.3887
v  -2.1666 31.1519 6.7252
v  -1.0016 15.6368 -7.0712
v  -3.7743 30.9947 -6.8761
v  3.3120 0.9425 6.3372
v  -0.0217 0.1650 0.0007
v  1.7043 0.7852 -7.2642
v  -2.8467 43.2550 -6.8217
v  4.0836 42.6927 -4.9647
v  5.2406 50.3713 -6.5111
v  -1.6424 51.2464 -8.4312
v  8.1972 43.0977 1.2786
v  9.4014 51.0891 -0.3309
v  7.7541 60.8064 -10.0680
v  0.9734 62.1064 -12.1329
v  12.0172 61.9491 -4.0326
v  11.2090 70.3279 -15.1096
v  4.5690 72.0158 -17.3798
v  15.6128 71.8585 -9.2795
v  15.5000 78.6461 -21.4822
v  9.0348 80.6728 -24.0120
v  20.0786 80.5155 -15.9117
v  20.4683 85.5854 -28.9460
v  14.1410 87.8120 -31.6826
v  25.1848 87.6547 -23.5823
v  -5.5026 15.7907 -3.5831
v  1.4192 15.1001 -1.7171
v  2.8612 30.5427 -3.4586
v  -4.0605 31.2334 -5.3247
v  5.5413 15.6334 4.5172
v  6.9833 31.0761 2.7756
v  -6.9107 0.8562 -1.8779
v  0.0110 0.1656 -0.0119
v  4.1332 0.6990 6.2224
v  7.6759 34.6362 3.1111
v  3.9750 33.9764 7.5810
v  5.0323 40.0260 9.4717
v  8.7763 40.9322 5.0788
v  -1.9930 34.5086 8.5937
v  -0.8926 40.8046 10.5614
v  7.2317 48.1106 13.2150
v  11.0653 49.3461 8.9746
v  1.3964 49.2185 14.4572
v  10.1797 55.3190 18.0794
v  14.1333 56.8481 14.0371
v  4.4644 56.7205 19.5197
v  13.7863 61.4316 23.9167
v  17.8868 63.2096 20.1122
v  8.2180 63.0820 25.5948
v  17.9202 66.3293 30.5187
v  22.1356 68.2493 26.8977
v  12.4667 68.1217 32.3803
v  5.0953 12.7834 -1.8019
v  1.3855 12.0208 2.6500
v  2.7949 24.3158 5.3484
v  6.5047 25.0783 0.8966
v  -4.5735 12.6558 3.6807
v  -3.1641 24.9507 6.3792
v  3.7213 0.8950 -4.4284
v  0.0115 0.1325 0.0234
v  -5.9475 0.7674 1.0542
v  0.3805 20.6592 5.3974
v  -3.0422 20.2306 4.7902
v  -3.7615 23.8225 5.9859
v  -0.3681 24.3973 6.6418
v  -5.3490 20.5826 1.9914
v  -6.0976 24.3208 3.2358
v  -5.1222 28.5994 8.3549
v  -1.7843 29.3688 9.1073
v  -7.5137 29.2923 5.7013
v  -6.8368 32.8296 11.4347
v  -3.5687 33.7713 12.3126
v  -9.2982 33.6948 8.9066
v  -8.8530 36.3841 15.1317
v  -5.6670 37.4706 16.1601
v  -11.3965 37.3941 12.7541
v  -11.1005 39.1957 19.3137
v  -7.9771 40.3637 20.4584
v  -13.7066 40.2872 17.0524
v  2.3493 7.6480 2.2930
v  -1.0658 7.1582 1.6744
v  -2.1519 14.4798 3.3793
v  1.2632 14.9697 3.9980
v  -3.3802 7.5715 -1.1130
v  -4.4663 14.8931 0.5919
v  3.4052 0.5688 0.6334
v  -0.0098 0.0790 0.0148
v  -2.3243 0.4923 -2.7726
v  -5.2851 46.2927 4.1821
v  -7.5877 60.3156 6.0042
v  3.1733 61.5776 12.1845
v  5.5697 46.9836 10.2883
v  -8.7323 46.9835 -7.7857
v  -11.1287 61.5777 -5.8894
v  -13.1621 79.4946 10.4152
v  -2.6282 81.5378 16.7753
v  -16.9301 81.5378 -1.2987
v  -21.2665 97.1455 16.8283
v  -11.0626 99.9076 23.4495
v  -25.3646 99.9077 5.3755
v  -31.6540 112.7308 25.0479
v  -21.8732 116.1277 32.0039
v  -36.1752 116.1277 13.9300
v  -43.9280 125.9130 34.7604
v  -34.4871 129.6890 41.9853
v  -48.7890 129.6890 23.9113
v  -1.7617 15.4310 1.3940
v  -3.5234 30.8618 2.7881
v  7.3318 31.5495 8.8939
v  9.0935 16.1187 7.4999
v  -5.2085 16.1187 -10.5741
v  -6.9702 31.5495 -9.1800
v  10.8552 0.6878 6.1059
v  -3.4468 0.6879 -11.9681
v  -1.1199 87.7820 4.4483
v  -1.7044 103.7222 6.7703
v  10.7439 104.8432 4.5282
v  11.3523 88.2537 2.1116
v  -10.9800 88.2537 -3.5905
v  -11.5883 104.8432 -1.1739
v  -3.3520 125.7227 13.3147
v  9.0293 127.7397 11.3391
v  -13.3030 127.7397 5.6370
v  -5.9082 146.2147 23.4686
v  6.3689 149.0664 21.9066
v  -15.9633 149.0663 16.2045
v  -9.2953 164.5741 36.9228
v  2.8439 168.1736 35.9088
v  -19.4884 168.1736 30.2067
v  -13.3798 180.3894 53.1474
v  -1.3535 184.4425 52.5818
v  -23.6858 184.4425 46.8797
v  12.0989 31.7731 -0.8542
v  -0.3733 31.0388 1.4828
v  -0.7466 62.7784 2.9655
v  11.7256 63.5127 0.6285
v  -10.2333 31.7730 -6.5563
v  -10.6066 63.5127 -5.0736
v  12.4722 1.0730 -2.3370
v  -9.8600 1.0730 -8.0391
v  -4.0024 87.7821 -2.2410
v  -6.0916 103.7222 -3.4108
v  -4.6353 104.8432 4.6947
v  -2.4610 88.2537 5.9122
v  3.7916 88.2537 -5.1671
v  1.6173 104.8432 -6.3846
v  -11.9800 125.7227 -6.7078
v  -10.7635 127.7397 1.2634
v  -4.5109 127.7397 -9.8159
v  -21.1161 146.2147 -11.8233
v  -20.2717 149.0664 -4.0604
v  -14.0191 149.0664 -15.1397
v  -33.2217 164.5742 -18.6014
v  -32.8703 168.1736 -11.1146
v  -26.6178 168.1736 -22.1939
v  -47.8200 180.3894 -26.7753
v  -47.8721 184.4425 -19.5144
v  -41.6195 184.4425 -30.5937
v  0.2076 31.7731 7.4063
v  -1.3341 31.0388 -0.7470
v  -2.6683 62.7784 -1.4940
v  -1.1266 63.5127 6.6593
v  6.4601 31.7730 -3.6729
v  5.1260 63.5127 -4.4199
v  1.5417 1.0730 8.1533
v  7.7943 1.0730 -2.9259
# 266 vertices

vn -0.6921 0.0881 -0.7164
vn -0.6818 0.1922 -0.7058
vn -0.9018 0.2000 -0.3832
vn -0.9139 0.0909 -0.3957
vn -0.3647 0.0719 -0.9284
vn -0.3575 0.1551 -0.9210
vn -0.6514 0.3476 -0.6744
vn -0.8702 0.3463 -0.3504
vn -0.3329 0.2958 -0.8954
vn -0.5995 0.5054 -0.6207
vn -0.8193 0.4900 -0.2977
vn -0.2879 0.4435 -0.8488
vn -0.5311 0.6444 -0.5501
vn -0.7545 0.6147 -0.2301
vn -0.2270 0.5755 -0.7857
vn -0.5857 0.6991 -0.4101
vn -0.7300 0.6518 -0.2054
vn -0.1801 0.6521 -0.7364
vn -0.6936 0.0573 -0.7181
vn -0.9160 0.0529 -0.3976
vn -0.3655 0.0529 -0.9293
vn -0.5887 0.0567 -0.8064
vn -0.0089 0.1797 0.9837
vn -0.0152 0.2818 0.9593
vn 0.3663 0.3054 0.8789
vn 0.3728 0.1986 0.9064
vn -0.3897 0.1335 0.9112
vn -0.3947 0.2152 0.8932
vn -0.0245 0.4322 0.9014
vn 0.3577 0.4466 0.8201
vn -0.4030 0.3518 0.8449
vn -0.0338 0.5821 0.8124
vn 0.3493 0.5826 0.7339
vn -0.4117 0.4926 0.7668
vn -0.0420 0.7112 0.7017
vn 0.3424 0.6979 0.6291
vn -0.4193 0.6157 0.6672
vn 0.0913 0.7680 0.6339
vn 0.3398 0.7316 0.5910
vn -0.4232 0.6856 0.5924
vn -0.0072 0.1493 0.9888
vn 0.3754 0.1611 0.9128
vn -0.3886 0.1147 0.9142
vn -0.1436 0.1396 0.9797
vn -0.9110 0.0755 0.4053
vn -0.9006 0.1921 0.3899
vn -0.6397 0.2311 0.7331
vn -0.6521 0.1166 0.7491
vn -0.9997 0.0205 -0.0154
vn -0.9927 0.1172 -0.0269
vn -0.8660 0.3470 0.3601
vn -0.6036 0.3743 0.7040
vn -0.9657 0.2547 -0.0514
vn -0.8031 0.5041 0.3175
vn -0.5426 0.5148 0.6637
vn -0.9127 0.3989 -0.0884
vn -0.7183 0.6427 0.2664
vn -0.4627 0.6367 0.6169
vn -0.8388 0.5279 -0.1335
vn -0.5982 0.7082 0.3749
vn -0.4330 0.6730 0.5997
vn -0.7804 0.6028 -0.1661
vn -0.6525 0.0522 0.7560
vn -0.9117 0.0195 0.4104
vn -0.9117 0.0253 0.4100
vn -0.6527 0.0597 0.7553
vn -0.9998 -0.0168 -0.0123
vn -0.9998 -0.0137 -0.0127
vn -0.6525 0.0532 0.7559
vn -0.9640 0.0075 0.2658
vn -0.9998 -0.0164 -0.0123
vn 0.8360 0.2502 -0.4883
vn 0.9486 0.2832 -0.1409
vn 0.9076 0.3941 -0.1448
vn 0.7909 0.3637 -0.4921
vn 0.9331 0.2794 0.2265
vn 0.9008 0.3729 0.2223
vn 0.8309 0.5367 -0.1471
vn 0.7114 0.5002 -0.4936
vn 0.8366 0.5020 0.2193
vn 0.7235 0.6748 -0.1453
vn 0.6047 0.6273 -0.4908
vn 0.7430 0.6321 0.2199
vn 0.5976 0.7896 -0.1392
vn 0.4822 0.7300 -0.4843
vn 0.6308 0.7428 0.2244
vn 0.5055 0.8229 -0.2594
vn 0.4389 0.7590 -0.4809
vn 0.5492 0.8038 0.2288
vn 0.8543 0.1847 -0.4859
vn 0.9636 0.2292 -0.1380
vn 0.9622 0.2347 -0.1384
vn 0.8524 0.1924 -0.4862
vn 0.9428 0.2427 0.2285
vn 0.9420 0.2458 0.2285
vn 0.8540 0.1857 -0.4860
vn 0.9711 0.2383 -0.0102
vn 0.9427 0.2432 0.2285
vn -0.2520 0.2431 0.9367
vn -0.5838 0.2152 0.7829
vn -0.5718 0.3287 0.7517
vn -0.2379 0.3596 0.9023
vn -0.8375 0.1595 0.5227
vn -0.8284 0.2551 0.4986
vn -0.5424 0.4763 0.6921
vn -0.2062 0.5014 0.8403
vn -0.8046 0.3884 0.4491
vn -0.4945 0.6217 0.6074
vn -0.1576 0.6356 0.7557
vn -0.7638 0.5249 0.3756
vn -0.4335 0.7452 0.5068
vn -0.0970 0.7468 0.6579
vn -0.7100 0.6433 0.2864
vn -0.2905 0.8036 0.5195
vn -0.0753 0.7787 0.6228
vn -0.6686 0.7099 0.2214
vn -0.2551 0.1766 0.9506
vn -0.5868 0.1602 0.7937
vn -0.5865 0.1658 0.7928
vn -0.2549 0.1844 0.9492
vn -0.8394 0.1221 0.5296
vn -0.8393 0.1252 0.5290
vn -0.2550 0.1776 0.9505
vn -0.6856 0.1499 0.7124
vn -0.8394 0.1226 0.5295
vn -0.7732 0.2024 -0.6010
vn -0.4965 0.2130 -0.8415
vn -0.4836 0.3269 -0.8119
vn -0.7586 0.3191 -0.5681
vn -0.1519 0.1962 -0.9687
vn -0.1428 0.2921 -0.9457
vn -0.4552 0.4750 -0.7531
vn -0.7284 0.4615 -0.5064
vn -0.1199 0.4258 -0.8968
vn -0.4113 0.6209 -0.6673
vn -0.6838 0.5963 -0.4206
vn -0.0824 0.5628 -0.8225
vn -0.3561 0.7450 -0.5641
vn -0.6297 0.7080 -0.3196
vn -0.0342 0.6817 -0.7308
vn -0.4310 0.7900 -0.4361
vn -0.6096 0.7402 -0.2838
vn 0.0019 0.7487 -0.6630
vn -0.7784 0.1356 -0.6130
vn -0.4999 0.1579 -0.8516
vn -0.4997 0.1635 -0.8506
vn -0.7779 0.1434 -0.6118
vn -0.1540 0.1588 -0.9752
vn -0.1537 0.1620 -0.9748
vn -0.7783 0.1366 -0.6128
vn -0.3851 0.1614 -0.9087
vn -0.1539 0.1593 -0.9752
vn 0.1112 0.2571 -0.9600
vn 0.4554 0.2965 -0.8395
vn 0.4252 0.4066 -0.8086
vn 0.0787 0.3698 -0.9258
vn 0.7386 0.2972 -0.6051
vn 0.7140 0.3901 -0.5814
vn 0.3742 0.5479 -0.7482
vn 0.0267 0.5050 -0.8627
vn 0.6702 0.5181 -0.5315
vn 0.3079 0.6843 -0.6610
vn -0.0381 0.6304 -0.7754
vn 0.6115 0.6467 -0.4559
vn 0.2344 0.7972 -0.5564
vn -0.1090 0.7312 -0.6734
vn 0.5450 0.7557 -0.3633
vn 0.0824 0.8274 -0.5555
vn -0.1330 0.7596 -0.6367
vn 0.4980 0.8153 -0.2953
vn 0.1255 0.1919 -0.9734
vn 0.4677 0.2427 -0.8499
vn 0.4665 0.2482 -0.8490
vn 0.1240 0.1996 -0.9720
vn 0.7469 0.2607 -0.6117
vn 0.7463 0.2638 -0.6111
vn 0.1253 0.1929 -0.9732
vn 0.5739 0.2536 -0.7787
vn 0.7468 0.2612 -0.6116
vn 0.7612 0.1824 -0.6223
vn 0.7364 0.2842 -0.6140
vn 0.4377 0.2512 -0.8633
vn 0.4652 0.1447 -0.8733
vn 0.9416 0.1923 -0.2763
vn 0.9230 0.2738 -0.2705
vn 0.6826 0.4342 -0.5879
vn 0.3835 0.3920 -0.8362
vn 0.8773 0.4100 -0.2496
vn 0.6043 0.5834 -0.5426
vn 0.3082 0.5274 -0.7917
vn 0.8080 0.5502 -0.2105
vn 0.5103 0.7120 -0.4823
vn 0.2193 0.6421 -0.7346
vn 0.7230 0.6728 -0.1569
vn 0.3702 0.7484 -0.5503
vn 0.1878 0.6757 -0.7129
vn 0.6601 0.7423 -0.1154
vn 0.7670 0.1520 -0.6234
vn 0.4722 0.1072 -0.8750
vn 0.9451 0.1736 -0.2769
vn 0.8443 0.1624 -0.5106
vn 0.2402 0.0590 -0.9689
vn 0.2285 0.1760 -0.9575
vn -0.2035 0.1506 -0.9674
vn -0.1914 0.0357 -0.9809
vn 0.6278 0.0716 -0.7751
vn 0.6181 0.1685 -0.7678
vn 0.2073 0.3316 -0.9203
vn -0.2244 0.2945 -0.9289
vn 0.6001 0.3066 -0.7389
vn 0.1782 0.4901 -0.8533
vn -0.2518 0.4363 -0.8638
vn 0.5746 0.4519 -0.6823
vn 0.1447 0.6304 -0.7627
vn -0.2830 0.5598 -0.7788
vn 0.5446 0.5824 -0.6035
vn -0.0230 0.6731 -0.7392
vn -0.2935 0.5968 -0.7468
vn 0.5227 0.6584 -0.5416
vn -0.1870 -0.0288 -0.9819
vn 0.2449 0.0030 -0.9695
vn 0.2444 0.0087 -0.9696
vn -0.1874 -0.0213 -0.9821
vn 0.6309 0.0343 -0.7751
vn 0.6307 0.0374 -0.7751
vn -0.1871 -0.0279 -0.9820
vn 0.3906 0.0151 -0.9204
vn 0.6309 0.0348 -0.7751
vn 0.8581 0.1876 0.4780
vn 0.8341 0.3021 0.4615
vn 0.9490 0.2331 -0.2120
vn 0.9705 0.1386 -0.1973
vn 0.3399 0.1484 0.9287
vn 0.3252 0.2286 0.9176
vn 0.7827 0.4515 0.4284
vn 0.9058 0.3492 -0.2399
vn 0.2899 0.3407 0.8943
vn 0.7043 0.5997 0.3799
vn 0.8429 0.4604 -0.2786
vn 0.2331 0.4559 0.8590
vn 0.6070 0.7267 0.3217
vn 0.7667 0.5540 -0.3246
vn 0.1609 0.5561 0.8154
vn 0.6650 0.7456 0.0432
vn 0.7389 0.5815 -0.3404
vn 0.1072 0.6129 0.7829
vn 0.9776 0.0846 -0.1927
vn 0.8650 0.1322 0.4840
vn 0.8645 0.1379 0.4833
vn 0.9769 0.0910 -0.1931
vn 0.3434 0.1172 0.9318
vn 0.3430 0.1198 0.9317
vn 0.9775 0.0855 -0.1928
vn 0.6993 0.1347 0.7020
vn 0.3433 0.1176 0.9318
# 255 vertex normals

vt 0.5000 0.0600 0.0000
vt 0.5000 0.2000 0.0000
vt 0.0000 0.2000 0.0000
vt 0.0000 0.0600 0.0000
vt 1.0000 0.0600 0.0000
vt 1.0000 0.2000 0.0000
vt 0.5000 0.4000 0.0000
vt 0.0000 0.4000 0.0000
vt 1.0000 0.4000 0.0000
vt 0.5000 0.6000 0.0000
vt 0.0000 0.6000 0.0000
vt 1.0000 0.6000 0.0000
vt 0.5000 0.8000 0.0000
vt 0.0000 0.8000 0.0000
vt 1.0000 0.8000 0.0000
vt 0.5000 1.0000 0.0000
vt 0.0000 1.0000 0.0000
vt 1.0000 1.0000 0.0000
vt 0.5000 0.0200 0.0000
vt 0.5000 0.0400 0.0000
vt 0.0000 0.0400 0.0000
vt 0.0000 0.0200 0.0000
vt 1.0000 0.0200 0.0000
vt 1.0000 0.0400 0.0000
vt 0.5000 0.0000 0.0000
vt 0.0000 0.0000 0.0000
vt 1.0000 0.0000 0.0000
# 27 texture coords

g palm_plant
s 1
f 1/1/1 2/2/2 3/3/3 4/4/4 
f 5/5/5 6/6/6 2/2/2 1/1/1 
f 2/2/2 7/7/7 8/8/8 3/3/3 
f 6/6/6 9/9/9 7/7/7 2/2/2 
f 7/7/7 10/10/10 11/11/11 8/8/8 
f 9/9/9 12/12/12 10/10/10 7/7/7 
f 10/10/10 13/13/13 14/14/14 11/11/11 
f 12/12/12 15/15/15 13/13/13 10/10/10 
f 13/13/13 16/16/16 17/17/17 14/14/14 
f 13/13/13 15/15/15 18/18/18 16/16/16 
f 19/19/19 20/20/19 21/21/20 22/22/20 
f 23/23/21 24/24/21 20/20/19 19/19/19 
f 25/25/22 19/19/19 22/22/20 26/26/20 
f 4/4/4 21/21/20 20/20/19 1/1/1 
f 27/27/21 23/23/21 19/19/19 25/25/22 
f 1/1/1 20/20/19 24/24/21 5/5/5 
f 28/1/23 29/2/24 30/3/25 31/4/26 
f 32/5/27 33/6/28 29/2/24 28/1/23 
f 29/2/24 34/7/29 35/8/30 30/3/25 
f 33/6/28 36/9/31 34/7/29 29/2/24 
f 34/7/29 37/10/32 38/11/33 35/8/30 
f 36/9/31 39/12/34 37/10/32 34/7/29 
f 37/10/32 40/13/35 41/14/36 38/11/33 
f 39/12/34 42/15/37 40/13/35 37/10/32 
f 40/13/35 43/16/38 44/17/39 41/14/36 
f 40/13/35 42/15/37 45/18/40 43/16/38 
f 46/19/41 47/20/41 48/21/42 49/22/42 
f 50/23/43 51/24/43 47/20/41 46/19/41 
f 25/25/44 46/19/41 49/22/42 52/26/42 
f 31/4/26 48/21/42 47/20/41 28/1/23 
f 53/27/43 50/23/43 46/19/41 25/25/44 
f 28/1/23 47/20/41 51/24/43 32/5/27 
f 54/1/45 55/2/46 56/3/47 57/4/48 
f 58/5/49 59/6/50 55/2/46 54/1/45 
f 55/2/46 60/7/51 61/8/52 56/3/47 
f 59/6/50 62/9/53 60/7/51 55/2/46 
f 60/7/51 63/10/54 64/11/55 61/8/52 
f 62/9/53 65/12/56 63/10/54 60/7/51 
f 63/10/54 66/13/57 67/14/58 64/11/55 
f 65/12/56 68/15/59 66/13/57 63/10/54 
f 66/13/57 69/16/60 70/17/61 67/14/58 
f 66/13/57 68/15/59 71/18/62 69/16/60 
f 72/22/63 73/19/64 74/20/65 75/21/66 
f 76/23/67 77/24/68 74/20/65 73/19/64 
f 78/26/69 79/25/70 73/19/64 72/22/63 
f 54/1/45 57/4/48 75/21/66 74/20/65 
f 80/27/71 76/23/67 73/19/64 79/25/70 
f 54/1/45 74/20/65 77/24/68 58/5/49 
f 81/4/72 82/1/73 83/2/74 84/3/75 
f 82/1/73 85/5/76 86/6/77 83/2/74 
f 84/3/75 83/2/74 87/7/78 88/8/79 
f 83/2/74 86/6/77 89/9/80 87/7/78 
f 88/8/79 87/7/78 90/10/81 91/11/82 
f 87/7/78 89/9/80 92/12/83 90/10/81 
f 91/11/82 90/10/81 93/13/84 94/14/85 
f 90/10/81 92/12/83 95/15/86 93/13/84 
f 94/14/85 93/13/84 96/16/87 97/17/88 
f 93/13/84 95/15/86 98/18/89 96/16/87 
f 99/22/90 100/19/91 101/20/92 102/21/93 
f 103/23/94 104/24/95 101/20/92 100/19/91 
f 105/26/96 106/25/97 100/19/91 99/22/90 
f 82/1/73 81/4/72 102/21/93 101/20/92 
f 107/27/98 103/23/94 100/19/91 106/25/97 
f 82/1/73 101/20/92 104/24/95 85/5/76 
f 108/4/99 109/1/100 110/2/101 111/3/102 
f 109/1/100 112/5/103 113/6/104 110/2/101 
f 111/3/102 110/2/101 114/7/105 115/8/106 
f 110/2/101 113/6/104 116/9/107 114/7/105 
f 115/8/106 114/7/105 117/10/108 118/11/109 
f 114/7/105 116/9/107 119/12/110 117/10/108 
f 118/11/109 117/10/108 120/13/111 121/14/112 
f 117/10/108 119/12/110 122/15/113 120/13/111 
f 121/14/112 120/13/111 123/16/114 124/17/115 
f 120/13/111 122/15/113 125/18/116 123/16/114 
f 126/22/117 127/19/118 128/20/119 129/21/120 
f 130/23/121 131/24/122 128/20/119 127/19/118 
f 132/26/123 133/25/124 127/19/118 126/22/117 
f 109/1/100 108/4/99 129/21/120 128/20/119 
f 134/27/125 130/23/121 127/19/118 133/25/124 
f 109/1/100 128/20/119 131/24/122 112/5/103 
f 135/4/126 136/1/127 137/2/128 138/3/129 
f 136/1/127 139/5/130 140/6/131 137/2/128 
f 138/3/129 137/2/128 141/7/132 142/8/133 
f 137/2/128 140/6/131 143/9/134 141/7/132 
f 142/8/133 141/7/132 144/10/135 145/11/136 
f 141/7/132 143/9/134 146/12/137 144/10/135 
f 145/11/136 144/10/135 147/13/138 148/14/139 
f 144/10/135 146/12/137 149/15/140 147/13/138 
f 148/14/139 147/13/138 150/16/141 151/17/142 
f 147/13/138 149/15/140 152/18/143 150/16/141 
f 153/22/144 154/19/145 155/20/146 156/21/147 
f 157/23/148 158/24/149 155/20/146 154/19/145 
f 159/26/150 160/25/151 154/19/145 153/22/144 
f 136/1/127 135/4/126 156/21/147 155/20/146 
f 161/27/152 157/23/148 154/19/145 160/25/151 
f 136/1/127 155/20/146 158/24/149 139/5/130 
f 162/4/153 163/1/154 164/2/155 165/3/156 
f 163/1/154 166/5/157 167/6/158 164/2/155 
f 165/3/156 164/2/155 168/7/159 169/8/160 
f 164/2/155 167/6/158 170/9/161 168/7/159 
f 169/8/160 168/7/159 171/10/162 172/11/163 
f 168/7/159 170/9/161 173/12/164 171/10/162 
f 172/11/163 171/10/162 174/13/165 175/14/166 
f 171/10/162 173/12/164 176/15/167 174/13/165 
f 175/14/166 174/13/165 177/16/168 178/17/169 
f 174/13/165 176/15/167 179/18/170 177/16/168 
f 180/22/171 181/19/172 182/20/173 183/21/174 
f 184/23/175 185/24/176 182/20/173 181/19/172 
f 186/26/177 187/25/178 181/19/172 180/22/171 
f 163/1/154 162/4/153 183/21/174 182/20/173 
f 188/27/179 184/23/175 181/19/172 187/25/178 
f 163/1/154 182/20/173 185/24/176 166/5/157 
f 189/1/180 190/2/181 191/3/182 192/4/183 
f 193/5/184 194/6/185 190/2/181 189/1/180 
f 190/2/181 195/7/186 196/8/187 191/3/182 
f 194/6/185 197/9/188 195/7/186 190/2/181 
f 195/7/186 198/10/189 199/11/190 196/8/187 
f 197/9/188 200/12/191 198/10/189 195/7/186 
f 198/10/189 201/13/192 202/14/193 199/11/190 
f 200/12/191 203/15/194 201/13/192 198/10/189 
f 201/13/192 204/16/195 205/17/196 202/14/193 
f 201/13/192 203/15/194 206/18/197 204/16/195 
f 207/19/198 208/20/198 209/21/199 210/22/199 
f 211/23/200 212/24/200 208/20/198 207/19/198 
f 25/25/201 207/19/198 210/22/199 213/26/199 
f 192/4/183 209/21/199 208/20/198 189/1/180 
f 214/27/200 211/23/200 207/19/198 25/25/201 
f 189/1/180 208/20/198 212/24/200 193/5/184 
f 215/1/202 216/2/203 217/3/204 218/4/205 
f 219/5/206 220/6/207 216/2/203 215/1/202 
f 216/2/203 221/7/208 222/8/209 217/3/204 
f 220/6/207 223/9/210 221/7/208 216/2/203 
f 221/7/208 224/10/211 225/11/212 222/8/209 
f 223/9/210 226/12/213 224/10/211 221/7/208 
f 224/10/211 227/13/214 228/14/215 225/11/212 
f 226/12/213 229/15/216 227/13/214 224/10/211 
f 227/13/214 230/16/217 231/17/218 228/14/215 
f 227/13/214 229/15/216 232/18/219 230/16/217 
f 233/22/220 234/19/221 235/20/222 236/21/223 
f 237/23/224 238/24/225 235/20/222 234/19/221 
f 239/26/226 79/25/227 234/19/221 233/22/220 
f 215/1/202 218/4/205 236/21/223 235/20/222 
f 240/27/228 237/23/224 234/19/221 79/25/227 
f 215/1/202 235/20/222 238/24/225 219/5/206 
f 241/1/229 242/2/230 243/3/231 244/4/232 
f 245/5/233 246/6/234 242/2/230 241/1/229 
f 242/2/230 247/7/235 248/8/236 243/3/231 
f 246/6/234 249/9/237 247/7/235 242/2/230 
f 247/7/235 250/10/238 251/11/239 248/8/236 
f 249/9/237 252/12/240 250/10/238 247/7/235 
f 250/10/238 253/13/241 254/14/242 251/11/239 
f 252/12/240 255/15/243 253/13/241 250/10/238 
f 253/13/241 256/16/244 257/17/245 254/14/242 
f 253/13/241 255/15/243 258/18/246 256/16/244 
f 259/22/247 260/19/248 261/20/249 262/21/250 
f 263/23/251 264/24/252 261/20/249 260/19/248 
f 265/26/253 79/25/254 260/19/248 259/22/247 
f 241/1/229 244/4/232 262/21/250 261/20/249 
f 266/27/255 263/23/251 260/19/248 79/25/254 
f 241/1/229 261/20/249 264/24/252 245/5/233 
# 160 polygons

